<svg width="350" height="350" viewBox="0 0 350 350" fill="none" xmlns="http://www.w3.org/2000/svg">
<path d="M218.604 205.851L213.232 203.703C187.986 260.509 87.5517 225.973 81.5084 242.872C80.501 254.287 136.355 245.043 176.285 246.978C188.462 247.567 194.568 256.759 189.398 271.741L199.582 271.773C211.329 235.15 248.821 253.84 250.388 241.754C247.814 233.807 207.3 241.754 218.604 205.851Z" fill="white"/>
<path d="M192.281 265.479C193.893 260.107 193.355 254.736 190.67 251.512C187.984 248.289 184.223 246.14 179.389 245.603L85.9173 244.528C85.3802 244.528 84.8432 243.991 84.3061 243.991C83.769 243.454 83.769 242.917 84.3061 242.38C84.8432 241.306 85.3802 240.768 86.4544 240.768L180.463 239.694C191.744 239.157 203.563 230.024 207.859 219.281L213.232 205.314C213.232 204.776 213.769 204.239 213.232 203.702C207.322 176.305 182.612 155.892 153.603 155.892C126.744 155.892 103.645 173.082 95.5866 197.256C90.2149 193.496 83.769 191.346 76.248 191.884C63.3553 192.958 53.149 203.702 51.5368 216.595C50.9997 219.818 51.5368 223.041 52.0749 226.264C31.1241 226.801 13.9338 243.991 13.9338 265.479C13.9338 267.627 13.9338 269.239 14.4709 271.388C14.4709 272.463 15.545 273 16.0831 273H188.521C189.595 273 190.67 272.463 190.67 271.388L192.281 265.479Z" fill="#F4811F"/>
<path d="M221.827 205.314H219.14C218.603 205.314 218.066 205.851 217.529 206.388L213.769 219.28C212.158 224.652 212.695 230.025 215.381 233.247C218.066 236.471 221.827 238.619 226.661 239.157L246.538 240.231C247.075 240.231 247.612 240.768 248.149 240.768C248.686 241.305 248.686 241.842 248.149 242.379C247.612 243.455 247.075 243.992 246 243.992L225.587 245.066C214.306 245.603 202.488 254.735 198.191 265.479L197.116 270.314C196.578 270.851 197.116 271.925 198.191 271.925H269.1C270.174 271.925 270.711 271.388 270.711 270.314C271.785 266.017 272.86 261.182 272.86 256.346C272.86 228.413 249.76 205.314 221.827 205.314Z" fill="#FAAD3F"/>
<g filter="url(#filter0_n_2_37)">
<path d="M300.365 117.104C300.769 115 301.178 112.865 301.188 111.028C301.2 109.188 308.509 101.792 307.438 101.393C306.497 101.044 297.409 107.465 296.075 108.423C294.741 109.381 293.39 110.716 292.055 112.041C288.448 115.617 287.754 120.5 284.146 124.08C282.432 125.778 277.741 126.249 276.277 128.581C274.508 131.398 273.49 134.683 273.463 137.168C273.434 139.766 275.231 140.511 276.812 140.635C278.546 140.772 280.535 140.351 281.969 141.118C283.199 141.772 283.934 143.256 284.801 144.512C285.669 145.764 286.751 146.827 288.393 146.524C290.429 146.15 293.173 143.471 294.907 140.144C296.488 137.107 297.686 131.055 297.686 131.055C297.686 131.055 299.471 121.755 300.365 117.104Z" fill="#6D4248"/>
<path d="M302.891 105.564C302.253 106.372 301.613 107.197 301.091 107.943C300.74 108.444 300.417 108.945 300.176 109.405C299.966 109.804 299.692 110.4 299.688 111.019L299.688 111.019C299.681 112.272 299.468 113.704 299.188 115.246L298.891 116.821C298.445 119.147 297.775 122.635 297.217 125.541C296.938 126.994 296.687 128.302 296.506 129.247C296.415 129.719 296.341 130.1 296.291 130.364C296.266 130.495 296.246 130.598 296.233 130.667C296.226 130.701 296.22 130.728 296.217 130.746C296.216 130.753 296.215 130.759 296.214 130.763L296.214 130.764L296.213 130.767C296.213 130.77 296.212 130.773 296.211 130.778C296.209 130.788 296.206 130.804 296.202 130.825C296.193 130.867 296.18 130.932 296.163 131.015C296.128 131.18 296.077 131.422 296.01 131.722C295.876 132.323 295.681 133.156 295.438 134.08C294.974 135.848 294.365 137.83 293.709 139.188L293.577 139.451C292.779 140.982 291.752 142.353 290.714 143.369C289.637 144.423 288.704 144.942 288.122 145.048L288.12 145.048C287.718 145.122 287.426 145.041 287.131 144.848C286.873 144.678 286.607 144.415 286.324 144.053L286.034 143.658C285.835 143.37 285.644 143.069 285.426 142.732C285.216 142.405 284.983 142.048 284.732 141.704C284.238 141.029 283.585 140.278 282.673 139.793C281.62 139.231 280.455 139.149 279.516 139.14C278.425 139.131 277.747 139.204 276.93 139.14C276.293 139.089 275.795 138.923 275.484 138.668C275.241 138.469 274.953 138.093 274.963 137.184C274.987 135.029 275.895 132.01 277.548 129.378C277.738 129.076 278.082 128.758 278.648 128.423C279.211 128.089 279.895 127.795 280.671 127.488C281.405 127.197 282.272 126.877 283.02 126.537C283.673 126.241 284.377 125.87 284.96 125.368L285.202 125.145C286.953 123.408 288.07 121.404 289.033 119.532L289.843 117.947C290.715 116.257 291.573 114.733 292.817 113.409L293.111 113.106C294.467 111.761 295.731 110.517 296.95 109.642C297.608 109.169 300.195 107.338 302.728 105.671C302.783 105.636 302.837 105.599 302.891 105.564Z" stroke="black" stroke-width="3"/>
</g>
<g filter="url(#filter1_n_2_37)">
<path d="M190.726 120.623C190.187 118.549 189.643 116.444 189.515 114.612C189.385 112.776 181.617 105.865 182.66 105.397C183.577 104.988 193.058 110.814 194.45 111.685C195.843 112.555 197.277 113.801 198.694 115.038C202.523 118.375 203.529 123.203 207.359 126.544C209.178 128.129 213.889 128.299 215.5 130.531C217.446 133.229 218.672 136.442 218.859 138.92C219.054 141.512 217.309 142.37 215.739 142.595C214.018 142.843 212.005 142.55 210.623 143.408C209.438 144.139 208.8 145.668 208.015 146.977C207.229 148.281 206.218 149.411 204.56 149.214C202.504 148.972 199.593 146.474 197.65 143.265C195.877 140.336 194.294 134.374 194.294 134.374C194.294 134.374 191.916 125.207 190.726 120.623Z" fill="#6D4248"/>
<path d="M187.465 109.268C188.153 110.034 188.845 110.816 189.414 111.527C189.796 112.005 190.15 112.484 190.421 112.928C190.655 113.312 190.967 113.889 191.011 114.506L191.012 114.507C191.099 115.757 191.403 117.172 191.781 118.693L192.178 120.246C192.773 122.538 193.665 125.976 194.409 128.841C194.78 130.273 195.114 131.562 195.356 132.493C195.477 132.959 195.574 133.334 195.642 133.594C195.675 133.724 195.702 133.824 195.719 133.893C195.728 133.927 195.735 133.953 195.74 133.971C195.742 133.978 195.743 133.984 195.744 133.988L195.744 133.989L195.745 133.992C195.745 133.994 195.747 133.997 195.748 134.002C195.751 134.012 195.755 134.028 195.76 134.049C195.772 134.09 195.789 134.154 195.811 134.235C195.857 134.398 195.923 134.636 196.009 134.931C196.181 135.523 196.43 136.342 196.731 137.248C197.308 138.983 198.042 140.921 198.784 142.234L198.933 142.489C199.827 143.965 200.94 145.268 202.041 146.215C203.184 147.198 204.147 147.655 204.735 147.724L204.738 147.724C205.144 147.773 205.43 147.673 205.711 147.461C205.958 147.275 206.206 146.995 206.466 146.616L206.73 146.203C206.91 145.903 207.081 145.591 207.277 145.24C207.466 144.9 207.675 144.529 207.904 144.17C208.354 143.464 208.957 142.673 209.836 142.131C210.851 141.502 212.008 141.345 212.944 141.277C214.033 141.198 214.714 141.227 215.526 141.11C216.158 141.019 216.644 140.821 216.939 140.547C217.168 140.333 217.431 139.939 217.363 139.033C217.201 136.883 216.101 133.929 214.283 131.409C214.074 131.12 213.71 130.824 213.124 130.526C212.54 130.228 211.839 129.979 211.046 129.722C210.294 129.479 209.408 129.215 208.64 128.924C207.97 128.67 207.243 128.345 206.629 127.882L206.373 127.675C204.514 126.053 203.271 124.126 202.19 122.319L201.28 120.789C200.302 119.159 199.347 117.693 198.022 116.451L197.708 116.168C196.269 114.912 194.928 113.752 193.656 112.957C192.969 112.527 190.269 110.866 187.635 109.365C187.578 109.333 187.521 109.3 187.465 109.268Z" stroke="black" stroke-width="3"/>
</g>
<g filter="url(#filter2_n_2_37)">
<path d="M329.362 138.924C319.572 132.572 288.765 144.394 291.595 151.085C294.426 157.776 293.996 160.116 296.504 165.106C303.872 179.765 339.152 145.276 329.362 138.924Z" fill="#E38B88" stroke="#010101" stroke-width="5"/>
<path d="M328.04 140.814C319.205 136.605 291.127 144.861 293.64 149.359C296.152 153.857 295.742 155.442 297.976 158.793C304.542 168.638 336.875 145.024 328.04 140.814Z" fill="#C2545F"/>
<path d="M328.04 140.814C319.205 136.605 291.127 144.861 293.64 149.359C296.152 153.857 295.742 155.442 297.976 158.793C304.542 168.638 336.875 145.024 328.04 140.814Z" fill="#C2545F"/>
<path d="M329.362 138.924C325.275 133.136 287.726 137.215 287.726 137.215C287.726 137.215 287.559 139.786 291.613 151.598C295.667 163.411 333.45 144.712 329.362 138.924Z" fill="#8F4D3A" stroke="#010101" stroke-width="5"/>
</g>
<g filter="url(#filter3_n_2_37)">
<path d="M159.194 147.062C168.556 140.095 200.058 149.917 197.663 156.776C195.267 163.635 195.846 165.942 193.663 171.082C187.25 186.184 149.832 154.028 159.194 147.062Z" fill="#E38B88" stroke="#010101" stroke-width="5"/>
<path d="M160.65 148.343C169.197 143.576 197.746 150.014 195.527 154.664C193.308 159.314 193.819 160.87 191.804 164.357C185.884 174.603 152.102 153.11 160.65 148.343Z" fill="#C2545F"/>
<path d="M159.194 147.061C162.902 141.023 200.635 142.686 200.635 142.686C200.635 142.686 200.966 145.241 197.678 157.289C194.39 169.337 155.486 153.1 159.194 147.061Z" fill="#8F4D3A" stroke="#010101" stroke-width="5"/>
</g>
<g filter="url(#filter4_n_2_37)">
<path d="M211.948 136.648C195.241 145.597 191.203 159.528 187.289 184.127C188.02 206.899 160.043 216.182 183.32 215.435C183.32 215.435 180.275 226.585 183.707 227.475C187.139 228.366 193.773 222.96 193.773 222.96L201.61 230.569L209.894 235.806C220.248 241.972 235.721 239.431 250.576 238.954C265.479 238.476 280.056 235.65 289.329 230.898C298.602 226.146 301.269 219.51 301.269 219.51C301.269 219.51 313.683 226.972 314.481 223.278C315.279 219.584 311.741 211.313 311.741 211.313C333.618 207.729 304.892 201.89 304.202 180.375C302.107 159.847 287.543 134.813 278.398 135.106C269.252 135.4 261.088 137.308 267.605 135.453C274.122 133.597 274.3 129.716 270.377 129.842L257.038 130.27C257.038 130.27 260.067 126.767 256.929 126.868L250.39 127.078C250.39 127.078 246.258 126.962 244.062 125.708C241.059 123.993 239.971 120.6 238.858 118.539C237.744 116.478 229.96 123.885 236.325 129.363C242.69 134.841 231.525 126.635 229.846 123.282C228.168 119.93 223.073 131.001 228.106 134.133C233.138 137.264 223.83 131.598 217.881 133.886C211.933 136.173 211.948 136.648 211.948 136.648Z" fill="#B1703F"/>
<path d="M306.7 180.295C307.009 189.915 313.539 196.072 318.214 200.813C319.327 201.942 320.433 203.094 321.199 204.187C321.903 205.193 322.796 206.804 322.303 208.641C321.802 210.508 320.17 211.527 318.688 212.145C317.728 212.545 316.547 212.892 315.144 213.207C315.356 213.806 315.58 214.47 315.798 215.17C316.208 216.493 316.609 217.988 316.854 219.432C317.089 220.82 317.226 222.41 316.925 223.806C316.628 225.179 315.689 226.112 314.529 226.529C313.551 226.881 312.524 226.836 311.73 226.723C310.1 226.493 308.214 225.788 306.572 225.069C304.974 224.368 303.417 223.566 302.23 222.923C301.83 223.537 301.332 224.239 300.718 224.996C298.698 227.488 295.448 230.571 290.469 233.123C280.729 238.114 265.732 240.969 250.657 241.453C243.509 241.682 235.566 242.447 228.521 242.37C221.37 242.293 214.369 241.381 208.615 237.954L208.586 237.936L208.558 237.919L200.273 232.683L200.054 232.543L199.868 232.362L193.559 226.237C192.923 226.683 192.148 227.199 191.303 227.701C190.185 228.366 188.872 229.05 187.544 229.508C186.284 229.944 184.653 230.304 183.078 229.895C180.672 229.27 179.959 226.974 179.733 225.634C179.477 224.113 179.569 222.358 179.743 220.836C179.859 219.827 180.024 218.84 180.19 217.97C178.721 217.949 177.48 217.867 176.455 217.709C175.602 217.576 174.784 217.376 174.067 217.048C173.344 216.718 172.578 216.19 172.071 215.331C171.002 213.521 171.81 211.655 172.339 210.674C172.949 209.544 173.912 208.291 174.886 207.054C178.976 201.858 185.122 194.544 184.791 184.207L184.783 183.969L184.82 183.734C186.776 171.444 188.804 161.49 192.556 153.46C196.321 145.404 201.791 139.337 210.421 134.633C210.709 134.386 211.066 134.16 211.484 133.931C212.372 133.445 213.98 132.707 216.984 131.552C218.974 130.787 221.105 130.731 222.941 130.912C223.142 130.932 223.342 130.956 223.541 130.982C223.275 129.098 223.569 127.147 224.072 125.532C224.56 123.967 225.361 122.353 226.419 121.328C226.911 120.851 227.869 120.106 229.187 120.16C230.464 120.213 231.31 120.956 231.809 121.697C232.024 121.046 232.302 120.44 232.612 119.893C233.433 118.441 234.587 117.208 235.775 116.468C236.344 116.114 237.136 115.738 238.038 115.691C239.027 115.64 240.206 116.016 240.92 117.12L241.057 117.35L241.293 117.805C241.529 118.272 241.762 118.769 241.971 119.204C242.269 119.823 242.564 120.412 242.899 120.974C243.567 122.097 244.317 122.976 245.301 123.538C245.962 123.915 247.14 124.209 248.401 124.388C248.984 124.471 249.511 124.519 249.89 124.546C250.078 124.56 250.228 124.568 250.327 124.573C250.354 124.574 250.376 124.575 250.395 124.576L256.849 124.369C257.898 124.335 259.664 124.558 260.505 126.238C260.747 126.721 260.839 127.202 260.849 127.646L270.297 127.343C271.615 127.301 273.061 127.571 274.152 128.515C275.399 129.595 275.747 131.188 275.294 132.647C275.281 132.686 275.266 132.724 275.252 132.763C276.248 132.697 277.276 132.641 278.317 132.607C281.677 132.499 284.951 134.65 287.742 137.382C290.642 140.219 293.517 144.169 296.112 148.687C301.296 157.716 305.599 169.442 306.689 180.121L306.698 180.208L306.7 180.295Z" stroke="#010101" stroke-width="5"/>
</g>
<g filter="url(#filter5_f_2_37)">
<path d="M240.631 170.549C240.963 180.882 232.855 189.528 222.522 189.859C212.189 190.191 203.544 182.083 203.212 171.75C202.88 161.417 210.988 152.772 221.321 152.44C231.654 152.108 240.299 160.216 240.631 170.549Z" fill="#010101"/>
</g>
<path d="M231.372 165.495C231.467 168.447 229.15 170.918 226.198 171.012C223.246 171.107 220.776 168.791 220.681 165.838C220.586 162.886 222.903 160.416 225.855 160.321C228.807 160.226 231.277 162.543 231.372 165.495Z" fill="white"/>
<path d="M234.396 176.368C234.449 177.992 233.175 179.35 231.551 179.402C229.927 179.455 228.568 178.181 228.516 176.557C228.464 174.933 229.738 173.574 231.362 173.522C232.986 173.47 234.344 174.744 234.396 176.368Z" fill="white"/>
<g filter="url(#filter6_f_2_37)">
<path d="M289.276 168.988C289.607 179.321 281.5 187.967 271.167 188.298C260.834 188.63 252.188 180.522 251.857 170.189C251.525 159.856 259.633 151.211 269.966 150.879C280.299 150.547 288.944 158.655 289.276 168.988Z" fill="#010101"/>
</g>
<path d="M281.086 163.9C281.181 166.852 278.864 169.322 275.912 169.417C272.959 169.512 270.489 167.195 270.395 164.243C270.3 161.291 272.616 158.82 275.569 158.726C278.521 158.631 280.991 160.947 281.086 163.9Z" fill="white"/>
<path d="M284.11 174.773C284.162 176.396 282.888 177.755 281.265 177.807C279.641 177.859 278.282 176.585 278.23 174.961C278.178 173.338 279.452 171.979 281.076 171.927C282.7 171.875 284.058 173.149 284.11 174.773Z" fill="white"/>
<g filter="url(#filter7_f_2_37)">
<path d="M285.48 117.472C285.532 119.095 284.258 120.454 282.634 120.506C281.01 120.558 279.652 119.284 279.599 117.66C279.547 116.037 280.821 114.678 282.445 114.626C284.069 114.574 285.427 115.848 285.48 117.472Z" fill="#B1703F"/>
<path d="M282.477 115.625C283.549 115.591 284.445 116.432 284.48 117.504C284.514 118.575 283.673 119.472 282.602 119.506C281.53 119.541 280.633 118.7 280.599 117.628C280.565 116.557 281.405 115.66 282.477 115.625Z" stroke="black" stroke-width="2"/>
</g>
<g filter="url(#filter8_f_2_37)">
<path d="M212.782 119.805C212.834 121.429 211.56 122.787 209.936 122.839C208.313 122.891 206.954 121.617 206.902 119.994C206.85 118.37 208.124 117.011 209.748 116.959C211.371 116.907 212.73 118.181 212.782 119.805Z" fill="#B1703F"/>
<path d="M209.78 117.959C210.851 117.924 211.748 118.765 211.782 119.837C211.817 120.909 210.976 121.805 209.904 121.839C208.832 121.874 207.936 121.033 207.901 119.961C207.867 118.89 208.708 117.993 209.78 117.959Z" stroke="black" stroke-width="2"/>
</g>
<g filter="url(#filter9_n_2_37)">
<rect x="215.124" y="192.772" width="61.5059" height="39.0429" rx="19.5214" transform="rotate(-1.83821 215.124 192.772)" fill="#FECAA8"/>
<rect x="212.545" y="190.354" width="66.5059" height="44.0429" rx="22.0214" transform="rotate(-1.83821 212.545 190.354)" stroke="black" stroke-width="5"/>
</g>
<path d="M241.78 206.365C241.875 209.317 239.558 211.787 236.606 211.882C233.654 211.977 231.184 209.66 231.089 206.708C230.994 203.755 233.311 201.285 236.263 201.191C239.215 201.096 241.685 203.412 241.78 206.365Z" fill="#010101"/>
<path d="M262.094 205.713C262.188 208.665 259.872 211.135 256.92 211.23C253.967 211.325 251.497 209.008 251.403 206.056C251.308 203.104 253.624 200.633 256.577 200.539C259.529 200.444 261.999 202.76 262.094 205.713Z" fill="#010101"/>
<path d="M231.563 221.483C249.115 224.906 260.005 221.888 262.619 215.863" stroke="black" stroke-width="5"/>
<path d="M260.361 213.26C261.65 216.035 263.914 217.458 266.913 217.33" stroke="black" stroke-width="3"/>
<defs>
<filter id="filter0_n_2_37" x="273.463" y="101.379" width="34.0827" height="45.1968" filterUnits="userSpaceOnUse" color-interpolation-filters="sRGB">
<feFlood flood-opacity="0" result="BackgroundImageFix"/>
<feBlend mode="normal" in="SourceGraphic" in2="BackgroundImageFix" result="shape"/>
<feTurbulence type="fractalNoise" baseFrequency="2 2" stitchTiles="stitch" numOctaves="3" result="noise" seed="5417" />
<feColorMatrix in="noise" type="luminanceToAlpha" result="alphaNoise" />
<feComponentTransfer in="alphaNoise" result="coloredNoise1">
<feFuncA type="discrete" tableValues="1 1 1 1 1 1 1 1 1 1 1 1 1 1 1 1 1 1 1 1 1 1 1 1 1 1 1 1 1 1 1 1 1 1 1 1 1 1 1 1 1 1 1 1 1 1 1 1 1 1 1 0 0 0 0 0 0 0 0 0 0 0 0 0 0 0 0 0 0 0 0 0 0 0 0 0 0 0 0 0 0 0 0 0 0 0 0 0 0 0 0 0 0 0 0 0 0 0 0 0 "/>
</feComponentTransfer>
<feComposite operator="in" in2="shape" in="coloredNoise1" result="noise1Clipped" />
<feFlood flood-color="rgba(0, 0, 0, 0.25)" result="color1Flood" />
<feComposite operator="in" in2="noise1Clipped" in="color1Flood" result="color1" />
<feMerge result="effect1_noise_2_37">
<feMergeNode in="shape" />
<feMergeNode in="color1" />
</feMerge>
</filter>
<filter id="filter1_n_2_37" x="182.563" y="105.377" width="36.3106" height="43.8598" filterUnits="userSpaceOnUse" color-interpolation-filters="sRGB">
<feFlood flood-opacity="0" result="BackgroundImageFix"/>
<feBlend mode="normal" in="SourceGraphic" in2="BackgroundImageFix" result="shape"/>
<feTurbulence type="fractalNoise" baseFrequency="2 2" stitchTiles="stitch" numOctaves="3" result="noise" seed="5417" />
<feColorMatrix in="noise" type="luminanceToAlpha" result="alphaNoise" />
<feComponentTransfer in="alphaNoise" result="coloredNoise1">
<feFuncA type="discrete" tableValues="1 1 1 1 1 1 1 1 1 1 1 1 1 1 1 1 1 1 1 1 1 1 1 1 1 1 1 1 1 1 1 1 1 1 1 1 1 1 1 1 1 1 1 1 1 1 1 1 1 1 1 0 0 0 0 0 0 0 0 0 0 0 0 0 0 0 0 0 0 0 0 0 0 0 0 0 0 0 0 0 0 0 0 0 0 0 0 0 0 0 0 0 0 0 0 0 0 0 0 0 "/>
</feComponentTransfer>
<feComposite operator="in" in2="shape" in="coloredNoise1" result="noise1Clipped" />
<feFlood flood-color="rgba(0, 0, 0, 0.25)" result="color1Flood" />
<feComposite operator="in" in2="noise1Clipped" in="color1Flood" result="color1" />
<feMerge result="effect1_noise_2_37">
<feMergeNode in="shape" />
<feMergeNode in="color1" />
</feMerge>
</filter>
<filter id="filter2_n_2_37" x="285.225" y="133.319" width="48.3405" height="37.8824" filterUnits="userSpaceOnUse" color-interpolation-filters="sRGB">
<feFlood flood-opacity="0" result="BackgroundImageFix"/>
<feBlend mode="normal" in="SourceGraphic" in2="BackgroundImageFix" result="shape"/>
<feTurbulence type="fractalNoise" baseFrequency="2 2" stitchTiles="stitch" numOctaves="3" result="noise" seed="7867" />
<feColorMatrix in="noise" type="luminanceToAlpha" result="alphaNoise" />
<feComponentTransfer in="alphaNoise" result="coloredNoise1">
<feFuncA type="discrete" tableValues="1 1 1 1 1 1 1 1 1 1 1 1 1 1 1 1 1 1 1 1 1 1 1 1 1 1 1 1 1 1 1 1 1 1 1 1 1 1 1 1 1 1 1 1 1 1 1 1 1 1 1 0 0 0 0 0 0 0 0 0 0 0 0 0 0 0 0 0 0 0 0 0 0 0 0 0 0 0 0 0 0 0 0 0 0 0 0 0 0 0 0 0 0 0 0 0 0 0 0 0 "/>
</feComponentTransfer>
<feComposite operator="in" in2="shape" in="coloredNoise1" result="noise1Clipped" />
<feFlood flood-color="rgba(0, 0, 0, 0.25)" result="color1Flood" />
<feComposite operator="in" in2="noise1Clipped" in="color1Flood" result="color1" />
<feMerge result="effect1_noise_2_37">
<feMergeNode in="shape" />
<feMergeNode in="color1" />
</feMerge>
</filter>
<filter id="filter3_n_2_37" x="155.2" y="139.976" width="47.9445" height="37.5945" filterUnits="userSpaceOnUse" color-interpolation-filters="sRGB">
<feFlood flood-opacity="0" result="BackgroundImageFix"/>
<feBlend mode="normal" in="SourceGraphic" in2="BackgroundImageFix" result="shape"/>
<feTurbulence type="fractalNoise" baseFrequency="2 2" stitchTiles="stitch" numOctaves="3" result="noise" seed="7867" />
<feColorMatrix in="noise" type="luminanceToAlpha" result="alphaNoise" />
<feComponentTransfer in="alphaNoise" result="coloredNoise1">
<feFuncA type="discrete" tableValues="1 1 1 1 1 1 1 1 1 1 1 1 1 1 1 1 1 1 1 1 1 1 1 1 1 1 1 1 1 1 1 1 1 1 1 1 1 1 1 1 1 1 1 1 1 1 1 1 1 1 1 0 0 0 0 0 0 0 0 0 0 0 0 0 0 0 0 0 0 0 0 0 0 0 0 0 0 0 0 0 0 0 0 0 0 0 0 0 0 0 0 0 0 0 0 0 0 0 0 0 "/>
</feComponentTransfer>
<feComposite operator="in" in2="shape" in="coloredNoise1" result="noise1Clipped" />
<feFlood flood-color="rgba(0, 0, 0, 0.25)" result="color1Flood" />
<feComposite operator="in" in2="noise1Clipped" in="color1Flood" result="color1" />
<feMerge result="effect1_noise_2_37">
<feMergeNode in="shape" />
<feMergeNode in="color1" />
</feMerge>
</filter>
<filter id="filter4_n_2_37" x="169.042" y="113.187" width="155.905" height="131.689" filterUnits="userSpaceOnUse" color-interpolation-filters="sRGB">
<feFlood flood-opacity="0" result="BackgroundImageFix"/>
<feBlend mode="normal" in="SourceGraphic" in2="BackgroundImageFix" result="shape"/>
<feTurbulence type="fractalNoise" baseFrequency="2 2" stitchTiles="stitch" numOctaves="3" result="noise" seed="5416" />
<feColorMatrix in="noise" type="luminanceToAlpha" result="alphaNoise" />
<feComponentTransfer in="alphaNoise" result="coloredNoise1">
<feFuncA type="discrete" tableValues="1 1 1 1 1 1 1 1 1 1 1 1 1 1 1 1 1 1 1 1 1 1 1 1 1 1 1 1 1 1 1 1 1 1 1 1 1 1 1 1 1 1 1 1 1 1 1 1 1 1 1 0 0 0 0 0 0 0 0 0 0 0 0 0 0 0 0 0 0 0 0 0 0 0 0 0 0 0 0 0 0 0 0 0 0 0 0 0 0 0 0 0 0 0 0 0 0 0 0 0 "/>
</feComponentTransfer>
<feComposite operator="in" in2="shape" in="coloredNoise1" result="noise1Clipped" />
<feFlood flood-color="rgba(0, 0, 0, 0.25)" result="color1Flood" />
<feComposite operator="in" in2="noise1Clipped" in="color1Flood" result="color1" />
<feMerge result="effect1_noise_2_37">
<feMergeNode in="shape" />
<feMergeNode in="color1" />
</feMerge>
</filter>
<filter id="filter5_f_2_37" x="199.202" y="148.43" width="45.4387" height="45.4388" filterUnits="userSpaceOnUse" color-interpolation-filters="sRGB">
<feFlood flood-opacity="0" result="BackgroundImageFix"/>
<feBlend mode="normal" in="SourceGraphic" in2="BackgroundImageFix" result="shape"/>
<feGaussianBlur stdDeviation="2" result="effect1_foregroundBlur_2_37"/>
</filter>
<filter id="filter6_f_2_37" x="247.847" y="146.869" width="45.4387" height="45.4388" filterUnits="userSpaceOnUse" color-interpolation-filters="sRGB">
<feFlood flood-opacity="0" result="BackgroundImageFix"/>
<feBlend mode="normal" in="SourceGraphic" in2="BackgroundImageFix" result="shape"/>
<feGaussianBlur stdDeviation="2" result="effect1_foregroundBlur_2_37"/>
</filter>
<filter id="filter7_f_2_37" x="278.598" y="113.624" width="7.88321" height="7.88323" filterUnits="userSpaceOnUse" color-interpolation-filters="sRGB">
<feFlood flood-opacity="0" result="BackgroundImageFix"/>
<feBlend mode="normal" in="SourceGraphic" in2="BackgroundImageFix" result="shape"/>
<feGaussianBlur stdDeviation="0.5" result="effect1_foregroundBlur_2_37"/>
</filter>
<filter id="filter8_f_2_37" x="205.9" y="115.958" width="7.88322" height="7.88323" filterUnits="userSpaceOnUse" color-interpolation-filters="sRGB">
<feFlood flood-opacity="0" result="BackgroundImageFix"/>
<feBlend mode="normal" in="SourceGraphic" in2="BackgroundImageFix" result="shape"/>
<feGaussianBlur stdDeviation="0.5" result="effect1_foregroundBlur_2_37"/>
</filter>
<filter id="filter9_n_2_37" x="210.74" y="186.415" width="71.4948" height="49.7639" filterUnits="userSpaceOnUse" color-interpolation-filters="sRGB">
<feFlood flood-opacity="0" result="BackgroundImageFix"/>
<feBlend mode="normal" in="SourceGraphic" in2="BackgroundImageFix" result="shape"/>
<feTurbulence type="fractalNoise" baseFrequency="2 2" stitchTiles="stitch" numOctaves="3" result="noise" seed="8342" />
<feColorMatrix in="noise" type="luminanceToAlpha" result="alphaNoise" />
<feComponentTransfer in="alphaNoise" result="coloredNoise1">
<feFuncA type="discrete" tableValues="1 1 1 1 1 1 1 1 1 1 1 1 1 1 1 1 1 1 1 1 1 1 1 1 1 1 1 1 1 1 1 1 1 1 1 1 1 1 1 1 1 1 1 1 1 1 1 1 1 1 1 0 0 0 0 0 0 0 0 0 0 0 0 0 0 0 0 0 0 0 0 0 0 0 0 0 0 0 0 0 0 0 0 0 0 0 0 0 0 0 0 0 0 0 0 0 0 0 0 0 "/>
</feComponentTransfer>
<feComposite operator="in" in2="shape" in="coloredNoise1" result="noise1Clipped" />
<feFlood flood-color="rgba(0, 0, 0, 0.25)" result="color1Flood" />
<feComposite operator="in" in2="noise1Clipped" in="color1Flood" result="color1" />
<feMerge result="effect1_noise_2_37">
<feMergeNode in="shape" />
<feMergeNode in="color1" />
</feMerge>
</filter>
</defs>
</svg>
