<svg width="351" height="350" viewBox="0 0 351 350" fill="none" xmlns="http://www.w3.org/2000/svg">
<g filter="url(#filter0_n_3_36)">
<path d="M246.551 111.46L229.366 128.851C227.278 130.964 229.96 134.305 232.474 132.724L262.251 114.008L262.821 114.829L243.556 129.587C241.147 131.432 243.49 135.169 246.201 133.804L277.655 117.972L278.137 118.847L257.819 131.091C255.178 132.683 257.197 136.712 260.053 135.548L291.926 122.563L292.333 123.476L237.731 149.899L304.911 127.727L305.25 128.668L244.521 152.475L316.467 133.408L316.747 134.368L250.573 155.365L326.469 139.542L326.695 140.515L255.799 158.53L334.81 146.06L334.985 147.045L260.099 161.931L341.397 152.891L341.526 153.882L341.506 153.884L341.502 153.885L263.401 165.524L346.16 159.961L346.245 160.957L265.623 169.258L349.046 167.19L349.088 168.188L266.75 173.076L350.026 174.5V175.5L266.75 176.923L349.088 181.811L349.046 182.81L265.623 180.741L346.245 189.044L346.16 190.04L346.142 190.038V190.039L346.136 190.038L263.39 184.473L341.502 196.114L341.507 196.115H341.506L341.526 196.118L341.397 197.109L260.099 188.067L334.985 202.956L334.81 203.94L334.791 203.936V203.937L334.787 203.936L255.801 191.469L326.695 209.484L326.469 210.459L250.574 194.634L316.747 215.632L316.467 216.591L244.521 197.524L305.25 221.332L304.911 222.272L237.73 200.1L292.333 226.524L291.926 227.437L260.053 214.452C257.197 213.288 255.178 217.316 257.819 218.908L278.137 231.153L277.655 232.028L246.201 216.195C243.49 214.831 241.147 218.567 243.556 220.413L262.821 235.171L262.251 235.991L232.474 217.275C229.96 215.695 227.278 219.037 229.366 221.149L246.551 238.54L245.883 239.281L214.623 214.169C213.129 212.969 211.128 214.837 212.223 216.41C214.109 219.119 210.349 222.156 208.097 219.743L204.293 215.666C202.834 214.101 200.296 215.743 201.126 217.715C202.509 220.999 197.92 223.422 195.989 220.427L193.726 216.918C192.457 214.949 189.399 216.111 189.758 218.425C190.344 222.2 184.987 223.597 183.656 220.016L182.886 217.948C182.022 215.622 178.612 216.049 178.348 218.516C177.921 222.507 172.113 222.507 171.686 218.516C171.422 216.049 168.012 215.622 167.148 217.948L166.378 220.016C165.048 223.597 159.69 222.2 160.276 218.425C160.635 216.111 157.578 214.949 156.308 216.918L154.045 220.427C152.115 223.422 147.525 220.999 148.908 217.715C149.738 215.743 147.2 214.101 145.741 215.666L141.937 219.743C139.685 222.156 135.925 219.119 137.811 216.41C138.906 214.837 136.905 212.969 135.412 214.169L104.151 239.281L103.483 238.54L120.668 221.149C122.756 219.036 120.075 215.695 117.56 217.275L87.7827 235.991L87.2134 235.171L106.478 220.413C108.887 218.567 106.544 214.831 103.833 216.195L72.3794 232.028L71.897 231.153L92.2153 218.908C94.8559 217.316 92.8367 213.288 89.981 214.452L58.1079 227.437L57.7017 226.524L112.303 200.1L45.1235 222.272L44.7847 221.332L105.512 197.524L33.5669 216.591L33.2876 215.632L99.4595 194.634L23.5649 210.459L23.3394 209.484L94.2319 191.469L15.2466 203.936L15.2437 203.937L15.2427 203.936L15.2241 203.94L15.0493 202.956L89.9341 188.067L8.63721 197.109L8.5083 196.118L8.52686 196.115L8.53076 196.114L86.6431 184.473L3.89697 190.038L3.89209 190.039L3.89111 190.038L3.87451 190.04L3.79053 189.044L84.4106 180.741L0.987793 182.81L0.945801 181.811L83.2837 176.923L0.00830078 175.5V174.5L83.2837 173.076L0.945801 168.188L0.987793 167.19L84.4106 169.258L3.79053 160.957L3.87451 159.961L86.6323 165.524L8.53076 153.885H8.52686V153.884L8.5083 153.882L8.63721 152.891L89.9341 161.931L15.0493 147.045L15.2241 146.06L94.2339 158.53L23.3394 140.515L23.5649 139.542L99.4604 155.365L33.2876 134.368L33.5669 133.408L105.512 152.475L44.7847 128.668L45.1235 127.727L112.302 149.899L57.7017 123.476L58.1079 122.563L89.981 135.548C92.8368 136.712 94.8564 132.683 92.2153 131.091L71.897 118.847L72.3794 117.972L103.833 133.804C106.544 135.169 108.887 131.432 106.478 129.587L87.2134 114.829L87.7827 114.008L117.56 132.724C120.075 134.305 122.756 130.964 120.668 128.851L103.483 111.46L104.151 110.718L135.412 135.832C136.905 137.031 138.906 135.163 137.811 133.59C135.925 130.882 139.685 127.844 141.937 130.257L145.741 134.335C147.201 135.899 149.738 134.256 148.908 132.284C147.526 129 152.115 126.578 154.045 129.573L156.308 133.083C157.578 135.052 160.635 133.889 160.276 131.574C159.69 127.8 165.047 126.403 166.378 129.983L167.148 132.052C168.012 134.378 171.422 133.951 171.686 131.484C172.113 127.493 177.921 127.493 178.348 131.484C178.612 133.951 182.022 134.378 182.886 132.052L183.656 129.983C184.987 126.403 190.344 127.8 189.758 131.574C189.399 133.889 192.457 135.052 193.726 133.083L195.989 129.573C197.919 126.578 202.509 129 201.126 132.284C200.296 134.256 202.834 135.899 204.293 134.335L208.097 130.257C210.349 127.844 214.109 130.882 212.223 133.59C211.128 135.163 213.129 137.031 214.623 135.832L245.883 110.718L246.551 111.46Z" fill="#B1703F" stroke="black"/>
<g filter="url(#filter1_n_3_36)">
<path d="M199.43 151.988C199.612 151.044 199.795 150.086 199.8 149.262C199.805 148.437 203.083 145.12 202.603 144.941C202.181 144.784 198.105 147.664 197.506 148.094C196.908 148.524 196.302 149.122 195.703 149.717C194.085 151.321 193.774 153.511 192.156 155.116C191.387 155.878 189.283 156.089 188.626 157.135C187.833 158.398 187.376 159.872 187.364 160.986C187.351 162.152 188.157 162.486 188.867 162.542C189.644 162.603 190.536 162.414 191.18 162.758C191.731 163.052 192.061 163.717 192.45 164.281C192.839 164.842 193.324 165.319 194.06 165.183C194.974 165.015 196.205 163.814 196.982 162.321C197.692 160.959 198.229 158.245 198.229 158.245C198.229 158.245 199.03 154.073 199.43 151.988Z" fill="#6D4248"/>
<path d="M200.992 146.547C200.615 147.022 200.209 147.532 199.898 147.977C199.742 148.199 199.602 148.418 199.499 148.615C199.406 148.791 199.302 149.026 199.3 149.259L199.3 149.26C199.295 150.028 199.124 150.937 198.94 151.893C198.739 152.936 198.438 154.5 198.188 155.804C198.063 156.456 197.95 157.042 197.869 157.466C197.828 157.678 197.795 157.85 197.773 157.968C197.761 158.027 197.753 158.072 197.747 158.103C197.744 158.119 197.742 158.131 197.74 158.139C197.74 158.143 197.738 158.145 197.738 158.147L197.738 158.148L197.738 158.15C197.738 158.151 197.737 158.152 197.736 158.154C197.736 158.159 197.734 158.167 197.732 158.176C197.729 158.196 197.722 158.225 197.715 158.262C197.699 158.337 197.675 158.446 197.645 158.581C197.585 158.853 197.497 159.229 197.388 159.646C197.166 160.492 196.865 161.463 196.539 162.09C196.173 162.792 195.702 163.423 195.222 163.892C194.792 164.313 194.395 164.565 194.094 164.66L193.97 164.691C193.553 164.768 193.236 164.538 192.861 163.996L192.862 163.997C192.77 163.864 192.682 163.726 192.586 163.575C192.491 163.429 192.389 163.273 192.28 163.123C192.064 162.828 191.789 162.516 191.415 162.317C190.981 162.085 190.494 162.047 190.078 162.044C189.611 162.039 189.278 162.072 188.906 162.043C188.602 162.019 188.339 161.939 188.161 161.793C188.026 161.682 187.896 161.498 187.869 161.151L187.864 160.992L187.871 160.799C187.929 159.815 188.342 158.527 189.05 157.401C189.155 157.233 189.336 157.073 189.602 156.916C189.867 156.759 190.185 156.623 190.533 156.484C190.869 156.352 191.249 156.212 191.579 156.062C191.909 155.912 192.251 155.726 192.508 155.472C193.383 154.604 193.898 153.582 194.376 152.642C194.863 151.685 195.312 150.808 196.055 150.071C196.661 149.47 197.238 148.902 197.798 148.5C198.095 148.287 199.257 147.464 200.395 146.715C200.719 146.502 201.039 146.297 201.334 146.114C201.225 146.253 201.111 146.399 200.992 146.547Z" stroke="black"/>
</g>
<g filter="url(#filter2_n_3_36)">
<path d="M150.255 153.566C150.013 152.635 149.769 151.692 149.712 150.87C149.653 150.046 146.169 146.946 146.637 146.737C147.049 146.553 151.301 149.166 151.926 149.557C152.55 149.947 153.193 150.506 153.829 151.061C155.546 152.558 155.997 154.723 157.715 156.221C158.531 156.932 160.644 157.009 161.367 158.01C162.24 159.22 162.79 160.661 162.873 161.772C162.961 162.935 162.178 163.32 161.474 163.421C160.702 163.532 159.799 163.401 159.179 163.785C158.648 164.113 158.362 164.799 158.009 165.386C157.657 165.971 157.203 166.478 156.46 166.389C155.538 166.281 154.232 165.161 153.361 163.721C152.565 162.408 151.856 159.733 151.856 159.733C151.856 159.733 150.789 155.622 150.255 153.566Z" fill="#6D4248"/>
<path d="M148.348 148.237C148.755 148.686 149.192 149.17 149.532 149.594C149.701 149.805 149.855 150.014 149.97 150.204C150.074 150.374 150.194 150.602 150.21 150.834L150.211 150.835C150.264 151.601 150.494 152.497 150.739 153.44C151.006 154.468 151.406 156.01 151.74 157.295C151.906 157.937 152.056 158.515 152.164 158.933C152.218 159.142 152.263 159.311 152.293 159.427C152.308 159.485 152.319 159.531 152.327 159.561C152.331 159.576 152.334 159.588 152.336 159.596C152.337 159.6 152.338 159.602 152.339 159.604L152.339 159.605L152.339 159.607C152.339 159.608 152.34 159.609 152.341 159.611C152.342 159.616 152.344 159.624 152.346 159.633C152.351 159.652 152.359 159.681 152.37 159.717C152.39 159.791 152.42 159.899 152.459 160.032C152.537 160.298 152.648 160.668 152.784 161.077C153.061 161.908 153.422 162.857 153.788 163.462C154.198 164.139 154.709 164.738 155.218 165.176C155.674 165.568 156.087 165.794 156.393 165.87L156.519 165.893C156.94 165.943 157.241 165.693 157.581 165.128L157.58 165.129C157.663 164.991 157.742 164.847 157.829 164.691C157.914 164.539 158.005 164.376 158.105 164.22C158.302 163.911 158.555 163.583 158.917 163.36C159.335 163.1 159.819 163.032 160.233 163.001C160.699 162.967 161.033 162.979 161.403 162.925C161.704 162.882 161.962 162.785 162.13 162.628C162.258 162.509 162.376 162.317 162.38 161.969L162.375 161.81L162.355 161.618C162.234 160.639 161.74 159.381 160.962 158.302C160.846 158.142 160.655 157.994 160.379 157.854C160.105 157.714 159.779 157.598 159.422 157.483C159.079 157.372 158.691 157.257 158.351 157.128C158.013 157 157.659 156.837 157.387 156.599C156.458 155.789 155.878 154.802 155.341 153.895C154.794 152.971 154.289 152.125 153.501 151.437C152.858 150.876 152.245 150.346 151.66 149.98C151.351 149.787 150.138 149.041 148.954 148.366C148.617 148.174 148.285 147.99 147.979 147.827C148.097 147.958 148.22 148.096 148.348 148.237Z" stroke="black"/>
</g>
<g filter="url(#filter3_n_3_36)">
<path d="M212.436 161.774C208.045 158.925 194.227 164.228 195.497 167.229C196.767 170.23 196.574 171.279 197.699 173.517C201.004 180.092 216.827 164.623 212.436 161.774Z" fill="#E38B88" stroke="#010101"/>
<path d="M211.843 162.622C207.881 160.734 195.287 164.437 196.414 166.454C197.541 168.472 197.357 169.183 198.359 170.686C201.304 175.102 215.806 164.51 211.843 162.622Z" fill="#C2545F"/>
<path d="M211.843 162.622C207.881 160.734 195.287 164.437 196.414 166.454C197.541 168.472 197.357 169.183 198.359 170.686C201.304 175.102 215.806 164.51 211.843 162.622Z" fill="#C2545F"/>
<path d="M212.436 161.774C210.603 159.178 193.762 161.007 193.762 161.007C193.762 161.007 193.687 162.161 195.505 167.459C197.323 172.757 214.27 164.37 212.436 161.774Z" fill="#8F4D3A" stroke="#010101"/>
</g>
<g filter="url(#filter4_n_3_36)">
<path d="M136.112 165.424C140.311 162.299 154.441 166.705 153.366 169.781C152.292 172.857 152.552 173.892 151.573 176.198C148.696 182.971 131.913 168.549 136.112 165.424Z" fill="#E38B88" stroke="#010101"/>
<path d="M136.765 165.999C140.599 163.861 153.404 166.748 152.409 168.834C151.413 170.92 151.643 171.618 150.739 173.182C148.083 177.777 132.932 168.137 136.765 165.999Z" fill="#C2545F"/>
<path d="M136.112 165.424C137.775 162.716 154.699 163.461 154.699 163.461C154.699 163.461 154.848 164.607 153.373 170.011C151.898 175.415 134.449 168.132 136.112 165.424Z" fill="#8F4D3A" stroke="#010101"/>
</g>
<g filter="url(#filter5_n_3_36)">
<path d="M159.773 160.753C152.28 164.767 150.469 171.015 148.714 182.049C149.041 192.263 136.493 196.426 146.933 196.091C146.933 196.091 145.567 201.092 147.107 201.491C148.646 201.891 151.621 199.466 151.621 199.466L155.137 202.879L158.852 205.228C163.496 207.993 170.436 206.854 177.099 206.64C183.783 206.425 190.321 205.158 194.481 203.026C198.64 200.895 199.836 197.919 199.836 197.919C199.836 197.919 205.404 201.266 205.762 199.609C206.119 197.952 204.533 194.242 204.533 194.242C214.345 192.635 201.461 190.016 201.151 180.366C200.212 171.159 193.679 159.93 189.578 160.062C185.476 160.193 181.814 161.049 184.737 160.217C187.66 159.385 187.74 157.644 185.98 157.701L179.997 157.893C179.997 157.893 181.356 156.322 179.948 156.367L177.015 156.461C177.015 156.461 175.162 156.409 174.177 155.847C172.83 155.078 172.342 153.555 171.843 152.631C171.344 151.707 167.852 155.029 170.707 157.486C173.562 159.943 168.554 156.262 167.801 154.759C167.048 153.255 164.763 158.221 167.021 159.625C169.278 161.03 165.103 158.489 162.435 159.514C159.767 160.54 159.773 160.753 159.773 160.753Z" fill="#B1703F"/>
<path d="M201.651 180.35C201.799 184.947 204.932 187.878 206.994 189.969C207.498 190.48 207.957 190.962 208.266 191.403C208.563 191.827 208.815 192.343 208.67 192.882C208.524 193.428 208.031 193.782 207.41 194.041C206.879 194.262 206.158 194.451 205.223 194.625C205.229 194.64 205.236 194.654 205.241 194.669C205.387 195.049 205.579 195.575 205.759 196.156C205.939 196.735 206.11 197.377 206.214 197.988C206.315 198.587 206.36 199.205 206.25 199.714C206.166 200.103 205.909 200.362 205.574 200.482C205.275 200.59 204.932 200.583 204.615 200.539C203.972 200.448 203.19 200.161 202.464 199.843C201.727 199.52 201.006 199.146 200.472 198.854C200.311 198.767 200.168 198.685 200.045 198.615C200.036 198.631 200.028 198.647 200.019 198.664C199.83 198.997 199.535 199.46 199.106 199.988C198.248 201.047 196.857 202.37 194.709 203.471C190.456 205.65 183.834 206.924 177.115 207.14C173.84 207.245 170.367 207.585 167.213 207.551C164.039 207.516 161.034 207.109 158.596 205.657L158.585 205.651L154.869 203.302L154.825 203.274L154.788 203.238L151.583 200.124C151.535 200.16 151.484 200.201 151.428 200.243C151.116 200.47 150.682 200.769 150.196 201.058C149.713 201.345 149.165 201.629 148.625 201.816C148.099 201.998 147.509 202.112 146.981 201.975C146.287 201.795 146.031 201.121 145.937 200.562C145.837 199.968 145.87 199.249 145.946 198.585C146.023 197.912 146.15 197.256 146.256 196.772C146.269 196.713 146.282 196.657 146.295 196.604C145.304 196.618 144.531 196.587 143.949 196.497C143.597 196.443 143.291 196.364 143.041 196.25C142.79 196.135 142.565 195.97 142.423 195.728C142.127 195.227 142.328 194.672 142.555 194.251C142.799 193.799 143.196 193.279 143.638 192.716C145.449 190.416 148.371 186.962 148.214 182.065L148.212 182.017L148.22 181.97C149.097 176.455 149.997 172.071 151.639 168.557C153.281 165.044 155.659 162.412 159.449 160.361C159.461 160.349 159.473 160.338 159.484 160.328C159.566 160.256 159.685 160.178 159.863 160.08C160.225 159.882 160.915 159.563 162.255 159.048C163.023 158.753 163.871 158.723 164.643 158.799C165.06 158.84 165.465 158.914 165.839 158.999C165.712 158.723 165.631 158.429 165.589 158.132C165.484 157.4 165.597 156.617 165.804 155.953C166.008 155.299 166.327 154.686 166.696 154.328C166.873 154.156 167.144 153.966 167.479 153.979C167.861 153.995 168.11 154.259 168.248 154.535C168.374 154.786 168.687 155.159 169.111 155.591C169.038 154.829 169.259 154.117 169.583 153.544C169.907 152.971 170.356 152.499 170.789 152.23C171.001 152.098 171.251 151.987 171.508 151.974C171.759 151.961 172.031 152.047 172.211 152.283L172.283 152.394L172.482 152.785C172.548 152.921 172.614 153.062 172.68 153.199C172.815 153.48 172.957 153.765 173.122 154.041C173.451 154.594 173.855 155.087 174.425 155.412C174.83 155.644 175.459 155.788 176.037 155.87C176.315 155.909 176.566 155.933 176.746 155.946C176.836 155.952 176.909 155.956 176.958 155.958C176.982 155.96 177.001 155.96 177.014 155.961L179.932 155.867C180.337 155.854 180.79 155.948 180.997 156.362C181.175 156.717 181.049 157.099 180.961 157.307C180.953 157.326 180.943 157.344 180.935 157.363L185.964 157.201C186.472 157.185 186.941 157.293 187.267 157.575C187.624 157.884 187.728 158.335 187.592 158.774C187.482 159.126 187.227 159.453 186.876 159.738C187.698 159.661 188.618 159.592 189.561 159.562C190.802 159.522 192.109 160.328 193.334 161.527C194.581 162.747 195.838 164.468 196.984 166.463C199.275 170.453 201.17 175.628 201.648 180.315L201.651 180.332L201.651 180.35Z" stroke="black"/>
</g>
<g filter="url(#filter6_f_3_36)">
<path d="M172.639 175.959C172.787 180.593 169.151 184.471 164.516 184.62C159.882 184.768 156.004 181.132 155.855 176.497C155.707 171.863 159.343 167.985 163.978 167.836C168.612 167.688 172.49 171.324 172.639 175.959Z" fill="#010101"/>
</g>
<path d="M168.486 173.692C168.528 175.016 167.489 176.124 166.165 176.166C164.841 176.209 163.733 175.17 163.69 173.846C163.648 172.522 164.687 171.414 166.011 171.371C167.335 171.329 168.443 172.368 168.486 173.692Z" fill="white"/>
<path d="M169.842 178.569C169.866 179.297 169.294 179.906 168.566 179.93C167.838 179.953 167.228 179.382 167.205 178.653C167.181 177.925 167.753 177.316 168.481 177.292C169.21 177.269 169.819 177.84 169.842 178.569Z" fill="white"/>
<g filter="url(#filter7_f_3_36)">
<path d="M194.457 175.259C194.605 179.893 190.969 183.771 186.334 183.92C181.7 184.068 177.822 180.432 177.673 175.797C177.525 171.163 181.161 167.285 185.796 167.136C190.43 166.988 194.308 170.624 194.457 175.259Z" fill="#010101"/>
</g>
<path d="M190.783 172.976C190.826 174.3 189.787 175.408 188.463 175.451C187.138 175.493 186.031 174.454 185.988 173.13C185.946 171.806 186.985 170.698 188.309 170.656C189.633 170.613 190.741 171.652 190.783 172.976Z" fill="white"/>
<path d="M192.14 177.853C192.163 178.581 191.592 179.191 190.864 179.214C190.135 179.237 189.526 178.666 189.503 177.938C189.479 177.209 190.051 176.6 190.779 176.577C191.507 176.553 192.117 177.125 192.14 177.853Z" fill="white"/>
<g filter="url(#filter8_f_3_36)">
<path d="M192.754 152.152C192.777 152.881 192.206 153.49 191.478 153.513C190.749 153.537 190.14 152.965 190.117 152.237C190.093 151.509 190.665 150.899 191.393 150.876C192.121 150.853 192.731 151.424 192.754 152.152Z" fill="#B1703F"/>
<path d="M191.409 151.376C191.861 151.361 192.24 151.716 192.254 152.168C192.269 152.621 191.914 152.999 191.462 153.014C191.009 153.028 190.631 152.673 190.616 152.221C190.602 151.769 190.957 151.39 191.409 151.376Z" stroke="black"/>
</g>
<g filter="url(#filter9_f_3_36)">
<path d="M160.148 153.199C160.171 153.927 159.6 154.537 158.871 154.56C158.143 154.583 157.534 154.012 157.51 153.284C157.487 152.555 158.058 151.946 158.787 151.923C159.515 151.899 160.124 152.471 160.148 153.199Z" fill="#B1703F"/>
<path d="M158.803 152.422C159.255 152.408 159.633 152.763 159.648 153.215C159.662 153.667 159.308 154.046 158.855 154.06C158.403 154.075 158.025 153.72 158.01 153.267C157.996 152.815 158.35 152.437 158.803 152.422Z" stroke="black"/>
</g>
<g filter="url(#filter10_n_3_36)">
<rect x="161.198" y="185.926" width="27.5867" height="17.5115" rx="8.75577" transform="rotate(-1.83821 161.198 185.926)" fill="#FECAA8"/>
<rect x="160.682" y="185.442" width="28.5867" height="18.5115" rx="9.25577" transform="rotate(-1.83821 160.682 185.442)" stroke="black"/>
</g>
<path d="M173.154 192.023C173.196 193.347 172.157 194.455 170.833 194.497C169.509 194.54 168.401 193.501 168.359 192.177C168.316 190.852 169.355 189.745 170.679 189.702C172.004 189.66 173.111 190.699 173.154 192.023Z" fill="#010101"/>
<path d="M182.265 191.73C182.307 193.055 181.268 194.162 179.944 194.205C178.62 194.247 177.512 193.208 177.47 191.884C177.427 190.56 178.466 189.452 179.79 189.41C181.115 189.367 182.222 190.406 182.265 191.73Z" fill="#010101"/>
<path d="M168.572 198.804C176.444 200.339 181.328 198.986 182.5 196.283" stroke="black"/>
<path d="M181.488 195.115C182.066 196.36 183.082 196.998 184.427 196.941" stroke="black"/>
</g>
<defs>
<filter id="filter0_n_3_36" x="0" y="110.329" width="350.034" height="129.342" filterUnits="userSpaceOnUse" color-interpolation-filters="sRGB">
<feFlood flood-opacity="0" result="BackgroundImageFix"/>
<feBlend mode="normal" in="SourceGraphic" in2="BackgroundImageFix" result="shape"/>
<feTurbulence type="fractalNoise" baseFrequency="2 2" stitchTiles="stitch" numOctaves="3" result="noise" seed="9737" />
<feColorMatrix in="noise" type="luminanceToAlpha" result="alphaNoise" />
<feComponentTransfer in="alphaNoise" result="coloredNoise1">
<feFuncA type="discrete" tableValues="1 1 1 1 1 1 1 1 1 1 1 1 1 1 1 1 1 1 1 1 1 1 1 1 1 1 1 1 1 1 1 1 1 1 1 1 1 1 1 1 1 1 1 1 1 1 1 1 1 1 1 0 0 0 0 0 0 0 0 0 0 0 0 0 0 0 0 0 0 0 0 0 0 0 0 0 0 0 0 0 0 0 0 0 0 0 0 0 0 0 0 0 0 0 0 0 0 0 0 0 "/>
</feComponentTransfer>
<feComposite operator="in" in2="shape" in="coloredNoise1" result="noise1Clipped" />
<feFlood flood-color="rgba(0, 0, 0, 0.25)" result="color1Flood" />
<feComposite operator="in" in2="noise1Clipped" in="color1Flood" result="color1" />
<feMerge result="effect1_noise_3_36">
<feMergeNode in="shape" />
<feMergeNode in="color1" />
</feMerge>
</filter>
<filter id="filter1_n_3_36" x="187.364" y="144.934" width="15.2868" height="20.2717" filterUnits="userSpaceOnUse" color-interpolation-filters="sRGB">
<feFlood flood-opacity="0" result="BackgroundImageFix"/>
<feBlend mode="normal" in="SourceGraphic" in2="BackgroundImageFix" result="shape"/>
<feTurbulence type="fractalNoise" baseFrequency="2 2" stitchTiles="stitch" numOctaves="3" result="noise" seed="5417" />
<feColorMatrix in="noise" type="luminanceToAlpha" result="alphaNoise" />
<feComponentTransfer in="alphaNoise" result="coloredNoise1">
<feFuncA type="discrete" tableValues="1 1 1 1 1 1 1 1 1 1 1 1 1 1 1 1 1 1 1 1 1 1 1 1 1 1 1 1 1 1 1 1 1 1 1 1 1 1 1 1 1 1 1 1 1 1 1 1 1 1 1 0 0 0 0 0 0 0 0 0 0 0 0 0 0 0 0 0 0 0 0 0 0 0 0 0 0 0 0 0 0 0 0 0 0 0 0 0 0 0 0 0 0 0 0 0 0 0 0 0 "/>
</feComponentTransfer>
<feComposite operator="in" in2="shape" in="coloredNoise1" result="noise1Clipped" />
<feFlood flood-color="rgba(0, 0, 0, 0.25)" result="color1Flood" />
<feComposite operator="in" in2="noise1Clipped" in="color1Flood" result="color1" />
<feMerge result="effect1_noise_3_36">
<feMergeNode in="shape" />
<feMergeNode in="color1" />
</feMerge>
</filter>
<filter id="filter2_n_3_36" x="146.594" y="146.728" width="16.286" height="19.672" filterUnits="userSpaceOnUse" color-interpolation-filters="sRGB">
<feFlood flood-opacity="0" result="BackgroundImageFix"/>
<feBlend mode="normal" in="SourceGraphic" in2="BackgroundImageFix" result="shape"/>
<feTurbulence type="fractalNoise" baseFrequency="2 2" stitchTiles="stitch" numOctaves="3" result="noise" seed="5417" />
<feColorMatrix in="noise" type="luminanceToAlpha" result="alphaNoise" />
<feComponentTransfer in="alphaNoise" result="coloredNoise1">
<feFuncA type="discrete" tableValues="1 1 1 1 1 1 1 1 1 1 1 1 1 1 1 1 1 1 1 1 1 1 1 1 1 1 1 1 1 1 1 1 1 1 1 1 1 1 1 1 1 1 1 1 1 1 1 1 1 1 1 0 0 0 0 0 0 0 0 0 0 0 0 0 0 0 0 0 0 0 0 0 0 0 0 0 0 0 0 0 0 0 0 0 0 0 0 0 0 0 0 0 0 0 0 0 0 0 0 0 "/>
</feComponentTransfer>
<feComposite operator="in" in2="shape" in="coloredNoise1" result="noise1Clipped" />
<feFlood flood-color="rgba(0, 0, 0, 0.25)" result="color1Flood" />
<feComposite operator="in" in2="noise1Clipped" in="color1Flood" result="color1" />
<feMerge result="effect1_noise_3_36">
<feMergeNode in="shape" />
<feMergeNode in="color1" />
</feMerge>
</filter>
<filter id="filter3_n_3_36" x="193.261" y="159.882" width="20.4391" height="15.7484" filterUnits="userSpaceOnUse" color-interpolation-filters="sRGB">
<feFlood flood-opacity="0" result="BackgroundImageFix"/>
<feBlend mode="normal" in="SourceGraphic" in2="BackgroundImageFix" result="shape"/>
<feTurbulence type="fractalNoise" baseFrequency="2 2" stitchTiles="stitch" numOctaves="3" result="noise" seed="7867" />
<feColorMatrix in="noise" type="luminanceToAlpha" result="alphaNoise" />
<feComponentTransfer in="alphaNoise" result="coloredNoise1">
<feFuncA type="discrete" tableValues="1 1 1 1 1 1 1 1 1 1 1 1 1 1 1 1 1 1 1 1 1 1 1 1 1 1 1 1 1 1 1 1 1 1 1 1 1 1 1 1 1 1 1 1 1 1 1 1 1 1 1 0 0 0 0 0 0 0 0 0 0 0 0 0 0 0 0 0 0 0 0 0 0 0 0 0 0 0 0 0 0 0 0 0 0 0 0 0 0 0 0 0 0 0 0 0 0 0 0 0 "/>
</feComponentTransfer>
<feComposite operator="in" in2="shape" in="coloredNoise1" result="noise1Clipped" />
<feFlood flood-color="rgba(0, 0, 0, 0.25)" result="color1Flood" />
<feComposite operator="in" in2="noise1Clipped" in="color1Flood" result="color1" />
<feMerge result="effect1_noise_3_36">
<feMergeNode in="shape" />
<feMergeNode in="color1" />
</feMerge>
</filter>
<filter id="filter4_n_3_36" x="134.942" y="162.867" width="20.2616" height="15.6193" filterUnits="userSpaceOnUse" color-interpolation-filters="sRGB">
<feFlood flood-opacity="0" result="BackgroundImageFix"/>
<feBlend mode="normal" in="SourceGraphic" in2="BackgroundImageFix" result="shape"/>
<feTurbulence type="fractalNoise" baseFrequency="2 2" stitchTiles="stitch" numOctaves="3" result="noise" seed="7867" />
<feColorMatrix in="noise" type="luminanceToAlpha" result="alphaNoise" />
<feComponentTransfer in="alphaNoise" result="coloredNoise1">
<feFuncA type="discrete" tableValues="1 1 1 1 1 1 1 1 1 1 1 1 1 1 1 1 1 1 1 1 1 1 1 1 1 1 1 1 1 1 1 1 1 1 1 1 1 1 1 1 1 1 1 1 1 1 1 1 1 1 1 0 0 0 0 0 0 0 0 0 0 0 0 0 0 0 0 0 0 0 0 0 0 0 0 0 0 0 0 0 0 0 0 0 0 0 0 0 0 0 0 0 0 0 0 0 0 0 0 0 "/>
</feComponentTransfer>
<feComposite operator="in" in2="shape" in="coloredNoise1" result="noise1Clipped" />
<feFlood flood-color="rgba(0, 0, 0, 0.25)" result="color1Flood" />
<feComposite operator="in" in2="noise1Clipped" in="color1Flood" result="color1" />
<feMerge result="effect1_noise_3_36">
<feMergeNode in="shape" />
<feMergeNode in="color1" />
</feMerge>
</filter>
<filter id="filter5_n_3_36" x="141.773" y="151.473" width="67.4393" height="56.5804" filterUnits="userSpaceOnUse" color-interpolation-filters="sRGB">
<feFlood flood-opacity="0" result="BackgroundImageFix"/>
<feBlend mode="normal" in="SourceGraphic" in2="BackgroundImageFix" result="shape"/>
<feTurbulence type="fractalNoise" baseFrequency="2 2" stitchTiles="stitch" numOctaves="3" result="noise" seed="5416" />
<feColorMatrix in="noise" type="luminanceToAlpha" result="alphaNoise" />
<feComponentTransfer in="alphaNoise" result="coloredNoise1">
<feFuncA type="discrete" tableValues="1 1 1 1 1 1 1 1 1 1 1 1 1 1 1 1 1 1 1 1 1 1 1 1 1 1 1 1 1 1 1 1 1 1 1 1 1 1 1 1 1 1 1 1 1 1 1 1 1 1 1 0 0 0 0 0 0 0 0 0 0 0 0 0 0 0 0 0 0 0 0 0 0 0 0 0 0 0 0 0 0 0 0 0 0 0 0 0 0 0 0 0 0 0 0 0 0 0 0 0 "/>
</feComponentTransfer>
<feComposite operator="in" in2="shape" in="coloredNoise1" result="noise1Clipped" />
<feFlood flood-color="rgba(0, 0, 0, 0.25)" result="color1Flood" />
<feComposite operator="in" in2="noise1Clipped" in="color1Flood" result="color1" />
<feMerge result="effect1_noise_3_36">
<feMergeNode in="shape" />
<feMergeNode in="color1" />
</feMerge>
</filter>
<filter id="filter6_f_3_36" x="151.851" y="163.832" width="24.7921" height="24.7921" filterUnits="userSpaceOnUse" color-interpolation-filters="sRGB">
<feFlood flood-opacity="0" result="BackgroundImageFix"/>
<feBlend mode="normal" in="SourceGraphic" in2="BackgroundImageFix" result="shape"/>
<feGaussianBlur stdDeviation="2" result="effect1_foregroundBlur_3_36"/>
</filter>
<filter id="filter7_f_3_36" x="173.669" y="163.132" width="24.7921" height="24.7921" filterUnits="userSpaceOnUse" color-interpolation-filters="sRGB">
<feFlood flood-opacity="0" result="BackgroundImageFix"/>
<feBlend mode="normal" in="SourceGraphic" in2="BackgroundImageFix" result="shape"/>
<feGaussianBlur stdDeviation="2" result="effect1_foregroundBlur_3_36"/>
</filter>
<filter id="filter8_f_3_36" x="189.116" y="149.875" width="4.63873" height="4.63875" filterUnits="userSpaceOnUse" color-interpolation-filters="sRGB">
<feFlood flood-opacity="0" result="BackgroundImageFix"/>
<feBlend mode="normal" in="SourceGraphic" in2="BackgroundImageFix" result="shape"/>
<feGaussianBlur stdDeviation="0.5" result="effect1_foregroundBlur_3_36"/>
</filter>
<filter id="filter9_f_3_36" x="156.51" y="150.922" width="4.63873" height="4.63875" filterUnits="userSpaceOnUse" color-interpolation-filters="sRGB">
<feFlood flood-opacity="0" result="BackgroundImageFix"/>
<feBlend mode="normal" in="SourceGraphic" in2="BackgroundImageFix" result="shape"/>
<feGaussianBlur stdDeviation="0.5" result="effect1_foregroundBlur_3_36"/>
</filter>
<filter id="filter10_n_3_36" x="160.474" y="184.318" width="29.5817" height="19.8349" filterUnits="userSpaceOnUse" color-interpolation-filters="sRGB">
<feFlood flood-opacity="0" result="BackgroundImageFix"/>
<feBlend mode="normal" in="SourceGraphic" in2="BackgroundImageFix" result="shape"/>
<feTurbulence type="fractalNoise" baseFrequency="2 2" stitchTiles="stitch" numOctaves="3" result="noise" seed="8342" />
<feColorMatrix in="noise" type="luminanceToAlpha" result="alphaNoise" />
<feComponentTransfer in="alphaNoise" result="coloredNoise1">
<feFuncA type="discrete" tableValues="1 1 1 1 1 1 1 1 1 1 1 1 1 1 1 1 1 1 1 1 1 1 1 1 1 1 1 1 1 1 1 1 1 1 1 1 1 1 1 1 1 1 1 1 1 1 1 1 1 1 1 0 0 0 0 0 0 0 0 0 0 0 0 0 0 0 0 0 0 0 0 0 0 0 0 0 0 0 0 0 0 0 0 0 0 0 0 0 0 0 0 0 0 0 0 0 0 0 0 0 "/>
</feComponentTransfer>
<feComposite operator="in" in2="shape" in="coloredNoise1" result="noise1Clipped" />
<feFlood flood-color="rgba(0, 0, 0, 0.25)" result="color1Flood" />
<feComposite operator="in" in2="noise1Clipped" in="color1Flood" result="color1" />
<feMerge result="effect1_noise_3_36">
<feMergeNode in="shape" />
<feMergeNode in="color1" />
</feMerge>
</filter>
</defs>
</svg>
